<svg version="1.1" id="Layer_1" xmlns="http://www.w3.org/2000/svg" xmlns:xlink="http://www.w3.org/1999/xlink" x="0px" y="0px" viewBox="0 0 177.8 55.2" style="enable-background:new 0 0 177.8 55.2;" xml:space="preserve">
 <style type="text/css">
  .st0{fill:#FFFFFF;}
	.st1{fill:#DC291E;}
	.st2{fill-rule:evenodd;clip-rule:evenodd;fill:#FFFFFF;}
 </style>
 <g>
  <path class="st0" d="M150.2,55.2c15.2,0,27.6-12.3,27.6-27.6S165.4,0,150.2,0L27.5,0C12.3,0,0,12.4,0,27.6s12.3,27.6,27.5,27.6
		H150.2z">
  </path>
  <path class="st1" d="M150.2,52.4c13.7,0,24.9-11.1,24.9-24.9c0-13.7-11.1-24.9-24.9-24.9l-122.6,0C13.9,2.9,3,14,3,27.6
		s11,24.7,24.6,24.9L150.2,52.4">
  </path>
  <path class="st0" d="M42.4,31.7l0.2,9.7l11.3,0l1.6-27.5H42.1l0.2,12.3h-8l0.2-12.3H21.1l1.7,27.5H34l0.1-9.7H42.4L42.4,31.7z
		 M67.7,31.8v-5.5l-8.1,0v5.5L67.7,31.8L67.7,31.8z M118.5,31.8l-0.1-5.5h-8.1l0,5.5H118.5L118.5,31.8z M100.1,26.2H85.6l0.1-4.8
		h20.2l0.5-7.5h-34l1.1,27.5h31.3l0.4-5.2H85.4l0.1-4.5h14.4L100.1,26.2z">
  </path>
  <path class="st2" d="M123.1,13.8h25.8l0,0c7.3,0,8.9,4.8,8.8,7.6c-0.1,4.3-2,6.7-5.9,7.6c5,0.5,4.7,4.2,4.3,6.6
		c-0.5,2.6-2.2,5.8-8.9,5.8h-22.5L123.1,13.8L123.1,13.8z M140.6,20.9c1.9,0,4.2,0.8,4.1,2.7c-0.2,2.3-2.1,2.9-4.5,2.9h-3.9l0.1-5.5
		C136.4,20.9,140.6,20.9,140.6,20.9z M143.7,33.9c-0.2,2.5-2.7,2.5-4.7,2.5l-0.4,0h-2.4l0.1-5.1h3.8
		C141.9,31.3,143.9,31.7,143.7,33.9L143.7,33.9z">
  </path>
 </g>
</svg>