<svg width="351" height="60" xmlns="http://www.w3.org/2000/svg" xmlns:xlink="http://www.w3.org/1999/xlink">
    <defs>
        <path id="a" d="M.326.397H49.37v59.567H.326z"/>
    </defs>
    <g fill="none" fill-rule="evenodd">
        <path d="M308.313 15c-2.11 4.158-3.313 8.935-3.313 14 0 5.065 1.203 9.84 3.313 14 3.495-3.499 5.687-8.485 5.687-14 0-5.523-2.184-10.501-5.687-14" fill="#3D403E"/>
        <g transform="translate(301)">
            <mask id="b" fill="#fff">
                <use href="#a"/>
            </mask>
            <path d="M19.879.396A29.2 29.2 0 0 0 .326 7.882a29.622 29.622 0 0 1 6.393 8.144c3.441-3.253 8.063-5.263 13.16-5.263 10.608 0 19.227 8.695 19.227 19.418 0 10.723-8.61 19.418-19.227 19.418-5.097 0-9.719-1.993-13.16-5.263a29.907 29.907 0 0 1-6.393 8.143 29.194 29.194 0 0 0 19.553 7.485c16.296 0 29.492-13.344 29.492-29.783C49.388 13.742 36.175.396 19.879.396" fill="#008A98" mask="url(#b)"/>
        </g>
        <path fill="#008A98" d="M209.955 7H223l-18.889 31.893V52h-11.09V38.893L174 7l12.913.008 11.591 19.161zM17.14 42.898h-5.77V16.031l5.752-.01c10.113 0 13.78 2.567 13.78 13.484.026 10.925-3.64 13.393-13.762 13.393M24.473 7H0l.01 45h25.035C39.273 52 42 42.774 42 29.594 42 16.416 39.273 7 24.473 7M58.938 42.884V33.59h26.018v-8.177H58.938v-9.349h26.018V7H54.664C50.574 7 48 9.118 48 13.945v31.174C48 49.944 50.574 52 54.664 52H85v-9.116H58.938zM129.186 7l-12.55 31.49-12.541-31.455L92 7l15.37 39.232c1.27 3.157 3.635 5.768 9.319 5.768 5.666 0 8.074-2.567 9.326-5.768L141 7h-11.814zM156.206 42.89V7H145v38.116c0 4.83 2.413 6.884 6.528 6.884H182v-9.11h-25.794zM262.924 7v28.811l-17.403-26.04c-2.269-3.03-6.807-2.745-8.44-2.745-4.171 0-8.055.788-8.081 6.545V52l10.822-.089.262-29.732 17.83 26.22c2.322 3.593 5.036 3.557 8.056 3.557 6.406 0 8.03-3.558 8.03-6.634V7h-11.076z"/>
    </g>
</svg>
