<svg version="1.1" id="Layer_1" xmlns:x="ns_extend;" xmlns:i="ns_ai;" xmlns:graph="ns_graphs;" xmlns="http://www.w3.org/2000/svg" xmlns:xlink="http://www.w3.org/1999/xlink" x="0px" y="0px" viewBox="0 0 62.1 77" style="enable-background:new 0 0 62.1 77;" xml:space="preserve">
 <style type="text/css">
  .st0{fill:#D9232E;}
	.st1{fill:#FFFFFF;}
 </style>
 <metadata>
  <sfw xmlns="ns_sfw;">
   <slices>
   </slices>
   <sliceSourceBounds bottomLeftOrigin="true" height="77" width="62.1" x="195" y="-540.1">
   </sliceSourceBounds>
  </sfw>
 </metadata>
 <g>
  <path class="st0" d="M43.7,9.3V3.6L40.1,0h-18l-3.7,3.6v5.7H0V77h62.1V9.3H43.7z M22.1,3.6h18v5.7h-18V3.6z">
  </path>
  <g>
   <rect x="50.5" y="24.6" class="st1" width="4" height="16.3">
   </rect>
   <rect x="46" y="47.8" class="st1" width="8.5" height="2.7">
   </rect>
   <rect x="28.2" y="24.5" class="st1" width="3.8" height="16.4">
   </rect>
   <polygon class="st1" points="7.4,24.7 10.3,24.7 16.4,36.5 22.6,24.7 25.3,24.7 25.3,40.8 21.7,40.8 21.7,31.9 16.7,40.9 
			14.6,40.9 10.1,31.8 10.1,40.8 7.4,40.8 		">
   </polygon>
   <path class="st1" d="M17.1,63.9c-2.6,1.9-7.2,1.5-9.8,0.5l0.5-2.6c1.3,0.6,3.4,0.9,5.2,0.8c2.2-0.2,3.1-1.9,2.1-3.1
			c-1-1.4-4.7-1.8-6.7-3.9c-1.7-1.8-1.2-5,0.5-6.4c2.4-2,7.2-1.4,9.3-0.8l-0.5,2.4c-0.9-0.5-6.6-1.4-7,1.1c-0.3,1.7,2.3,2.5,3.6,3.1
			c1.7,0.7,3.3,1.7,4.1,2.9S19.5,62.2,17.1,63.9L17.1,63.9z">
   </path>
   <g>
    <path class="st1" d="M31.9,49.3c-1.1-1.2-2.5-1.6-4.4-1.6c-1.9,0-3.3,0.5-4.4,1.6c-1.7,1.6-2.5,4.1-2.4,7.4
				c0.2,4.8,1.9,8.5,6.8,8.5c4.8,0,6.6-3.8,6.8-8.5C34.4,53.4,33.6,50.9,31.9,49.3z M30.6,56.7c-0.1,2.9-0.7,6.1-3.2,6.1
				c-2.5-0.1-3.2-3.2-3.2-6.1c0-3.9,0.6-6.6,3.1-6.7h0.2C30.1,50.2,30.7,52.9,30.6,56.7z">
    </path>
    <path class="st0" d="M27.5,50h-0.2c-2.5,0.1-3.1,2.8-3.1,6.7c0,2.9,0.7,6,3.2,6.1c2.5,0,3.1-3.2,3.2-6.1
				C30.7,52.9,30.1,50.2,27.5,50z">
    </path>
   </g>
   <polygon class="st1" points="34.9,24.6 37,24.6 45,34.4 45,24.6 47.7,24.6 47.7,40.9 46.1,40.9 37.6,31 37.6,40.9 34.9,40.9 		">
   </polygon>
   <circle class="st1" cx="38.8" cy="49.5" r="2.1">
   </circle>
   <path class="st1" d="M45.5,65.1c-5.1,0-9.3-4.2-9.3-9.5v-0.4h2.5v0.4c0,3.8,3,6.9,6.8,6.9s6.8-3.1,6.8-6.9v-0.4h2.5v0.4
			C54.8,60.9,50.6,65.1,45.5,65.1L45.5,65.1z">
   </path>
  </g>
 </g>
</svg>